<!DOCTYPE svg PUBLIC "-//W3C//DTD SVG 1.1//EN" "http://www.w3.org/Graphics/SVG/1.1/DTD/svg11.dtd">
<!-- Uploaded to: SVG Repo, www.svgrepo.com, Transformed by: SVG Repo Mixer Tools -->
<svg width="256px" height="256px" viewBox="-1.92 -1.92 27.84 27.84" fill="none" xmlns="http://www.w3.org/2000/svg" stroke="#5f1075" transform="rotate(0)">
<g id="SVGRepo_bgCarrier" stroke-width="0" transform="translate(0,0), scale(1)">
<path transform="translate(-1.92, -1.92), scale(0.8699999999999999)" d="M16,29.02412567039331C19.864505198329724,29.22528282243268,23.08301542546567,26.589242039586225,25.672322435500682,23.71341975100204C28.533782318062595,20.53532998556717,31.711058423637606,16.800502209905716,30.75972477563183,12.631189136167414C29.808353315241867,8.4617103459446,25.24811303687176,6.651721096208357,21.368608268744687,4.851970060136491C17.5909412717101,3.0994628464052365,13.47761642517447,1.1701426825852568,9.664903356413554,2.845036270239147C5.736469132815317,4.570765212323712,3.2934630536607186,8.72868624549172,2.8326893224333745,12.994647262577672C2.4245862959506312,16.77296942797732,5.100745331760192,19.831611398235314,7.512970582388119,22.7681801112076C9.860012955482004,25.62539719698912,12.307392127872447,28.83191620371272,16,29.02412567039331" fill="#c2ffed" strokewidth="0"/>
</g>
<g id="SVGRepo_tracerCarrier" stroke-linecap="round" stroke-linejoin="round" stroke="#a92828" stroke-width="0.624"/>
<g id="SVGRepo_iconCarrier"> <path d="M8 15C5.79086 15 4 16.7909 4 19V21H20V19C20 16.7909 18.2091 15 16 15H12M12 3C9.79086 3 8 4.79086 8 7C8 9.20914 9.79086 11 12 11C14.2091 11 16 9.20914 16 7C16 6.27143 15.8052 5.58835 15.4649 5" stroke="#100a61" stroke-width="1.56" stroke-linecap="round" stroke-linejoin="round"/> </g>
</svg>